<?xml version="1.0" encoding="UTF-8" standalone="no"?>
<svg
        xmlns:dc="http://purl.org/dc/elements/1.1/"
        xmlns:cc="http://creativecommons.org/ns#"
        xmlns:rdf="http://www.w3.org/1999/02/22-rdf-syntax-ns#"
        xmlns:svg="http://www.w3.org/2000/svg"
        xmlns="http://www.w3.org/2000/svg"
        xmlns:sodipodi="http://sodipodi.sourceforge.net/DTD/sodipodi-0.dtd"
        xmlns:inkscape="http://www.inkscape.org/namespaces/inkscape"
        sodipodi:docname="skate-green.svg"
        inkscape:version="1.0 (4035a4fb49, 2020-05-01)"
        id="svg1047"
        version="1.1"
        viewBox="0 0 146.65477 192.12712"
        height="192.12712mm"
        width="146.65477mm">
    <defs
            id="defs1041">
        <clipPath
                id="clipPath1868-5-7"
                clipPathUnits="userSpaceOnUse">
            <path
                    inkscape:connector-curvature="0"
                    id="path1870-7-4"
                    d="m 64.144686,157.0844 c 0,0 -8.68626,6.01356 -9.354433,7.61718 -0.668174,1.60362 -1.469983,4.27632 0.801809,5.61266 2.271792,1.33635 6.681737,2.00452 8.68626,-0.13363 2.004521,-2.13816 0.668174,-2.93997 3.073599,-4.40995 2.405425,-1.46998 4.810852,-1.33635 5.479026,-2.00452 0.668173,-0.66818 2.138156,-2.27179 1.870887,-3.4745 -0.267272,-1.20272 -5.612662,-3.60814 -7.082645,-4.00905 -1.46998,-0.4009 -3.474503,0.80181 -3.474503,0.80181 z"
                    style="fill:#ffb600;fill-opacity:1;stroke:none;stroke-width:0.264583px;stroke-linecap:butt;stroke-linejoin:miter;stroke-opacity:1" />
        </clipPath>
        <clipPath
                id="clipPath1966-6-9"
                clipPathUnits="userSpaceOnUse">
            <path
                    inkscape:connector-curvature="0"
                    id="path1968-3-7"
                    d="m 77.240892,116.7267 c 0,0 -8.953529,10.95805 -10.022607,12.42804 -1.069078,1.46998 -4.543584,7.48354 -4.409948,9.6217 0.133633,2.13815 1.069078,16.1698 2.00452,18.30796 0.935445,2.13816 6.414469,4.54358 7.884454,3.87541 1.46998,-0.66817 2.806327,-1.46998 2.539058,-4.14268 -0.267269,-2.67269 0.267269,-7.34991 0.267269,-8.15172 0,-0.80181 -1.202711,-4.54358 -1.202711,-5.87993 0,-1.33635 9.621702,-9.08716 14.03165,-10.95805 4.409948,-1.87089 8.018087,-2.93997 8.819896,-2.93997 0.801809,0 5.479027,3.47451 6.949007,9.2208 1.46998,5.7463 3.74177,13.49711 4.00904,15.368 0.26727,1.87089 0.53454,5.61266 0.66818,7.34991 0.13363,1.73725 -0.53454,5.7463 0.26727,7.21628 0.80181,1.46998 2.67269,2.53906 4.14267,2.00452 1.46999,-0.53454 6.01357,-2.80633 6.28084,-3.60814 0.26727,-0.8018 -0.80181,-6.01356 -0.80181,-6.01356 0,0 2.13815,-3.4745 2.27179,-5.34539 0.13363,-1.87089 -0.53454,-15.50163 -0.53454,-16.70435 0,-1.20271 -1.73725,-10.28987 -1.73725,-11.35895 0,-1.06908 -2.6727,-7.34991 -2.6727,-7.34991 l -26.326043,-4.54358 z"
                    style="fill:#061357;fill-opacity:1;stroke:none;stroke-width:0.264583px;stroke-linecap:butt;stroke-linejoin:miter;stroke-opacity:1" />
        </clipPath>
        <clipPath
                id="clipPath1962-3-3"
                clipPathUnits="userSpaceOnUse">
            <path
                    inkscape:connector-curvature="0"
                    id="path1964-6-2"
                    d="m 77.240892,116.7267 c 0,0 -8.953529,10.95805 -10.022607,12.42804 -1.069078,1.46998 -4.543584,7.48354 -4.409948,9.6217 0.133633,2.13815 1.069078,16.1698 2.00452,18.30796 0.935445,2.13816 6.414469,4.54358 7.884454,3.87541 1.46998,-0.66817 2.806327,-1.46998 2.539058,-4.14268 -0.267269,-2.67269 0.267269,-7.34991 0.267269,-8.15172 0,-0.80181 -1.202711,-4.54358 -1.202711,-5.87993 0,-1.33635 9.621702,-9.08716 14.03165,-10.95805 4.409948,-1.87089 8.018087,-2.93997 8.819896,-2.93997 0.801809,0 5.479027,3.47451 6.949007,9.2208 1.46998,5.7463 3.74177,13.49711 4.00904,15.368 0.26727,1.87089 0.53454,5.61266 0.66818,7.34991 0.13363,1.73725 -0.53454,5.7463 0.26727,7.21628 0.80181,1.46998 2.67269,2.53906 4.14267,2.00452 1.46999,-0.53454 6.01357,-2.80633 6.28084,-3.60814 0.26727,-0.8018 -0.80181,-6.01356 -0.80181,-6.01356 0,0 2.13815,-3.4745 2.27179,-5.34539 0.13363,-1.87089 -0.53454,-15.50163 -0.53454,-16.70435 0,-1.20271 -1.73725,-10.28987 -1.73725,-11.35895 0,-1.06908 -2.6727,-7.34991 -2.6727,-7.34991 l -26.326043,-4.54358 z"
                    style="fill:#061357;fill-opacity:1;stroke:none;stroke-width:0.264583px;stroke-linecap:butt;stroke-linejoin:miter;stroke-opacity:1" />
        </clipPath>
        <clipPath
                id="clipPath2088-8-0"
                clipPathUnits="userSpaceOnUse">
            <path
                    style="opacity:1;fill:#ffdecc;fill-opacity:1;stroke:none;stroke-width:0.264583px;stroke-linecap:butt;stroke-linejoin:miter;stroke-opacity:1"
                    d="m 72.964577,71.357675 c 0,0.935443 1.00226,2.071338 1.603616,2.539061 0.601355,0.46772 2.204974,2.00452 2.605878,2.405425 0.400905,0.400905 1.336347,1.202714 1.469983,2.071338 0.133633,0.868627 0.267269,1.536801 0.935442,1.670436 0.668174,0.133634 1.336347,-0.734991 1.336347,-0.734991 0,0 2.271792,0.601356 3.407688,0.734991 1.135896,0.133634 2.739512,0.601356 3.407685,0.06682 0.668174,-0.534538 2.271792,-3.741772 2.405428,-4.276312 0.133633,-0.534538 0.935442,-2.338607 1.00226,-3.274052 0.06682,-0.935445 0.06682,-5.211755 0.06682,-5.545844 0,-0.334084 0.46772,-1.46998 0.601355,-2.071336 0.133636,-0.601358 0.601356,-2.40543 0.200451,-3.006783 -0.400902,-0.601358 -1.403167,-1.135896 -1.670433,-1.135896 -0.267269,0 -1.986344,0.0087 -2.053162,0.476403 -0.06681,0.467723 0.04864,-1.077761 -0.619532,-1.81275 -0.668176,-0.734991 -3.073601,-2.472243 -4.34313,-2.472243 -1.269532,0 -4.276315,0.267269 -5.612662,1.202709 -1.336347,0.935445 -4.677217,5.813115 -4.944486,7.483549 -0.267269,1.670436 0.200454,5.679477 0.200454,5.679477 z"
                    id="path2090-7-8"
                    inkscape:connector-curvature="0"
                    sodipodi:nodetypes="ccccccccccsscsccscscc" />
        </clipPath>
        <clipPath
                id="clipPath1897-1-8"
                clipPathUnits="userSpaceOnUse">
            <path
                    inkscape:connector-curvature="0"
                    id="path1899-6-6"
                    d="m 109.23512,168.77158 c 0,0 2.83482,5.00818 3.1183,6.52008 0.28348,1.51191 1.88988,7.65402 2.07887,8.12649 0.18899,0.47247 2.55134,6.23661 6.23661,4.06325 3.68527,-2.17337 3.68527,-7.55953 3.49628,-8.032 -0.18899,-0.47247 -3.59078,-8.03199 -3.87426,-8.97693 -0.28348,-0.94494 -2.83482,-5.57515 -2.83482,-5.57515 z"
                    style="fill:#ffb600;fill-opacity:1;stroke:none;stroke-width:0.264583px;stroke-linecap:butt;stroke-linejoin:miter;stroke-opacity:1" />
        </clipPath>
        <clipPath
                id="clipPath1939-0-4"
                clipPathUnits="userSpaceOnUse">
            <path
                    sodipodi:nodetypes="csccscsssscsscssccssccsscssccccc"
                    inkscape:connector-curvature="0"
                    id="path1941-9-3"
                    d="m 72.964577,71.357723 c 0,0 -5.879928,3.741769 -6.748555,4.744032 -0.868624,1.00226 -6.1472,5.011303 -6.815373,5.144937 -0.668173,0.133635 -1.269529,0.267268 -1.469983,1.135896 -0.200451,0.868627 -1.536798,2.739511 2.472246,6.013563 4.009041,3.274052 6.548101,4.610399 6.548101,4.610399 0,0 5.813113,-3.474503 6.68174,-3.474503 0.868625,0 6.748555,5.278573 7.884451,6.882194 1.135894,1.60361 2.672694,5.144939 2.672694,7.216279 0,2.07133 -3.073598,7.75081 -5.011303,10.08942 -1.937703,2.33861 -2.80633,3.34087 -3.006781,3.94223 -0.200454,0.60135 3.340867,-2.53906 8.619442,-0.53454 5.278575,2.00452 10.289874,3.20723 12.895755,3.4745 2.605879,0.26727 9.554889,0.20045 11.960309,0.0668 2.40543,-0.13364 6.1472,1.26953 6.88219,0.53454 0.73499,-0.73499 2.40543,-3.74178 2.40543,-4.00905 0,-0.26727 -2.87315,-5.34539 -2.80633,-8.35217 0.0668,-3.00678 0.46772,-7.95127 -0.13364,-9.354429 -0.60135,-1.40317 -1.40316,-4.009041 -1.13589,-7.01583 0.26727,-3.006783 1.9377,-11.492589 3.4745,-12.628485 1.5368,-1.135896 6.28083,-2.739512 7.2831,-2.405425 1.00226,0.334086 0.46772,-0.400905 1.87088,-3.140417 1.40317,-2.739514 2.47013,-6.120019 2.55527,-6.37336 0.66146,-1.968161 -10.57335,-0.375195 -13.4465,-1.577906 -2.87315,-1.202714 -9.6217,-3.006783 -11.1585,-3.541321 -1.5368,-0.53454 -4.00905,-0.467722 -5.41221,0.267269 -1.403169,0.734991 -2.204979,2.405425 -2.53906,3.80859 -0.334089,1.403165 -3.875408,11.02487 -3.875408,11.02487 l -4.40995,-1.469983 c 0,0 -9.888972,-2.204974 -11.626223,-3.207234 -1.737252,-1.002263 -4.610402,-1.870887 -4.610402,-1.870887 z"
                    style="fill:#ffb600;fill-opacity:1;stroke:none;stroke-width:0.264583px;stroke-linecap:butt;stroke-linejoin:miter;stroke-opacity:1" />
        </clipPath>
    </defs>
    <sodipodi:namedview
            inkscape:window-maximized="1"
            inkscape:window-y="-9"
            inkscape:window-x="-9"
            inkscape:window-height="1001"
            inkscape:window-width="1920"
            showgrid="false"
            inkscape:document-rotation="0"
            inkscape:current-layer="layer1"
            inkscape:document-units="mm"
            inkscape:cy="400.21772"
            inkscape:cx="145.7143"
            inkscape:zoom="0.35"
            inkscape:pageshadow="2"
            inkscape:pageopacity="0.0"
            borderopacity="1.0"
            bordercolor="#666666"
            pagecolor="#ffffff"
            id="base" />
    <metadata
            id="metadata1044">
        <rdf:RDF>
            <cc:Work
                    rdf:about="">
                <dc:format>image/svg+xml</dc:format>
                <dc:type
                        rdf:resource="http://purl.org/dc/dcmitype/StillImage" />
                <dc:title></dc:title>
            </cc:Work>
        </rdf:RDF>
    </metadata>
    <g
            transform="translate(-67.279758,-42.275729)"
            id="layer1"
            inkscape:groupmode="layer"
            inkscape:label="Calque 1">
        <g
                id="g991"
                transform="translate(-126.62203,11.370965)"
                inkscape:export-filename="C:\Users\sarah.lachise\Pictures\illustrations\skate-green.png"
                inkscape:export-xdpi="90"
                inkscape:export-ydpi="90">
            <path
                    style="opacity:1;vector-effect:none;fill:#ebebeb;fill-opacity:1;stroke:none;stroke-width:1.465;stroke-linecap:round;stroke-linejoin:round;stroke-miterlimit:4;stroke-dasharray:5.85999, 5.85999;stroke-dashoffset:0;stroke-opacity:1;paint-order:markers stroke fill"
                    id="path1970-7"
                    sodipodi:type="arc"
                    sodipodi:cx="268.55209"
                    sodipodi:cy="129.36754"
                    sodipodi:rx="70.870537"
                    sodipodi:ry="70.870537"
                    sodipodi:start="0.32175145"
                    sodipodi:end="0.14707837"
                    sodipodi:open="true"
                    d="m 335.78577,151.77883 a 70.870537,70.870537 0 0 1 -86.68856,45.73664 70.870537,70.870537 0 0 1 -49.47737,-84.60931 70.870537,70.870537 0 0 1 82.36874,-53.123776 70.870537,70.870537 0 0 1 56.66889,79.971136"
                    inkscape:export-xdpi="90"
                    inkscape:export-ydpi="90"
                    sodipodi:arc-type="arc"
                    transform="translate(1.1339285,14.363095)" />
            <path
                    style="opacity:1;vector-effect:none;fill:none;fill-opacity:1;stroke:#000000;stroke-width:1.12379;stroke-linecap:round;stroke-linejoin:round;stroke-miterlimit:4;stroke-dasharray:none;stroke-dashoffset:0;stroke-opacity:1;paint-order:markers stroke fill"
                    id="path1993-5-13-4-7"
                    sodipodi:type="arc"
                    sodipodi:cx="209.96597"
                    sodipodi:cy="85.900269"
                    sodipodi:rx="9.5648594"
                    sodipodi:ry="9.5648594"
                    sodipodi:start="0.32175145"
                    sodipodi:end="0.14707837"
                    sodipodi:open="true"
                    d="m 219.03999,88.924951 a 9.5648594,9.5648594 0 0 1 -11.6997,6.172728 9.5648594,9.5648594 0 0 1 -6.67758,-11.419078 9.5648594,9.5648594 0 0 1 11.11668,-7.169714 9.5648594,9.5648594 0 0 1 7.64817,10.793099"
                    inkscape:export-xdpi="90"
                    inkscape:export-ydpi="90"
                    sodipodi:arc-type="arc"
                    transform="translate(1.1339285,14.363095)" />
            <path
                    style="fill:none;stroke:#000000;stroke-width:0.861113;stroke-linecap:butt;stroke-linejoin:miter;stroke-miterlimit:4;stroke-dasharray:20.6667, 20.6667;stroke-dashoffset:0;stroke-opacity:1"
                    d="M 199.08717,177.2966 334.6152,59.96948"
                    id="path2055-3"
                    inkscape:connector-curvature="0"
                    inkscape:export-xdpi="90"
                    inkscape:export-ydpi="90" />
            <path
                    style="opacity:1;vector-effect:none;fill:#ebebeb;fill-opacity:1;stroke:none;stroke-width:1.465;stroke-linecap:round;stroke-linejoin:round;stroke-miterlimit:4;stroke-dasharray:5.85999, 5.85999;stroke-dashoffset:0;stroke-opacity:1;paint-order:markers stroke fill"
                    id="path1993-99"
                    sodipodi:type="arc"
                    sodipodi:cx="205.24107"
                    sodipodi:cy="29.014883"
                    sodipodi:rx="12.473214"
                    sodipodi:ry="12.473214"
                    sodipodi:start="0.32175145"
                    sodipodi:end="0.14707837"
                    sodipodi:open="true"
                    d="m 217.0742,32.95927 a 12.473214,12.473214 0 0 1 -15.25719,8.049649 12.473214,12.473214 0 0 1 -8.70801,-14.891239 12.473214,12.473214 0 0 1 14.4969,-9.349784 12.473214,12.473214 0 0 1 9.97372,14.07492"
                    inkscape:export-xdpi="90"
                    inkscape:export-ydpi="90"
                    sodipodi:arc-type="arc"
                    transform="translate(1.1339285,14.363095)" />
            <path
                    style="opacity:1;vector-effect:none;fill:#00ab6f;fill-opacity:1;stroke:none;stroke-width:0.976667;stroke-linecap:round;stroke-linejoin:round;stroke-miterlimit:4;stroke-dasharray:3.90668, 3.90668;stroke-dashoffset:0;stroke-opacity:1;paint-order:markers stroke fill"
                    id="path1993-5-4"
                    sodipodi:type="arc"
                    sodipodi:cx="318.25595"
                    sodipodi:cy="81.175598"
                    sodipodi:rx="8.3154764"
                    sodipodi:ry="8.3154764"
                    sodipodi:start="0.32175145"
                    sodipodi:end="0.14707837"
                    sodipodi:open="true"
                    d="m 326.1447,83.80519 a 8.3154764,8.3154764 0 0 1 -10.17146,5.366432 8.3154764,8.3154764 0 0 1 -5.80534,-9.927492 8.3154764,8.3154764 0 0 1 9.6646,-6.23319 8.3154764,8.3154764 0 0 1 6.64915,9.38328"
                    inkscape:export-xdpi="90"
                    inkscape:export-ydpi="90"
                    sodipodi:arc-type="arc"
                    transform="translate(1.1339285,14.363095)" />
            <path
                    style="opacity:1;vector-effect:none;fill:#00ab6f;fill-opacity:1;stroke:none;stroke-width:1.4428;stroke-linecap:round;stroke-linejoin:round;stroke-miterlimit:4;stroke-dasharray:5.7712, 5.7712;stroke-dashoffset:0;stroke-opacity:1;paint-order:markers stroke fill"
                    id="path1993-5-1-2"
                    sodipodi:type="arc"
                    sodipodi:cx="313.15326"
                    sodipodi:cy="153.55803"
                    sodipodi:rx="12.284226"
                    sodipodi:ry="12.284226"
                    sodipodi:start="0.32175145"
                    sodipodi:end="0.14707837"
                    sodipodi:open="true"
                    d="m 324.8071,157.44265 a 12.284226,12.284226 0 0 1 -15.02602,7.92769 12.284226,12.284226 0 0 1 -8.57608,-14.66562 12.284226,12.284226 0 0 1 14.27725,-9.20812 12.284226,12.284226 0 0 1 9.82261,13.86167"
                    inkscape:export-xdpi="90"
                    inkscape:export-ydpi="90"
                    sodipodi:arc-type="arc"
                    transform="translate(1.1339285,14.363095)" />
            <path
                    style="opacity:1;vector-effect:none;fill:none;fill-opacity:1;stroke:#000000;stroke-width:0.809236;stroke-linecap:round;stroke-linejoin:round;stroke-miterlimit:4;stroke-dasharray:none;stroke-dashoffset:0;stroke-opacity:1;paint-order:markers stroke fill"
                    id="path1993-5-13-6"
                    sodipodi:type="arc"
                    sodipodi:cx="320.94278"
                    sodipodi:cy="89.768105"
                    sodipodi:rx="6.88761"
                    sodipodi:ry="6.88761"
                    sodipodi:start="0.32175145"
                    sodipodi:end="0.14707837"
                    sodipodi:open="true"
                    d="m 327.47694,91.946164 a 6.88761,6.88761 0 0 1 -8.4249,4.444952 6.88761,6.88761 0 0 1 -4.8085,-8.222824 6.88761,6.88761 0 0 1 8.00508,-5.162876 6.88761,6.88761 0 0 1 5.50741,7.772059"
                    inkscape:export-xdpi="90"
                    inkscape:export-ydpi="90"
                    sodipodi:arc-type="arc"
                    transform="translate(1.1339285,14.363095)" />
            <g
                    transform="translate(-7.9460443,-17.892562)"
                    id="g1008"
                    inkscape:export-filename="C:\Users\sarah.lachise\Pictures\illustrations\appli vie sco\boy-skate-greenx3.png"
                    inkscape:export-xdpi="288.01453"
                    inkscape:export-ydpi="288.01453">
                <path
                        inkscape:export-ydpi="90"
                        inkscape:export-xdpi="90"
                        style="fill:#ffd9c5;fill-opacity:1;stroke:none;stroke-width:0.264583px;stroke-linecap:butt;stroke-linejoin:miter;stroke-opacity:1"
                        d="m 273.13614,72.412492 c 0,0 2.67269,0.86862 4.07585,1.00226 1.40317,0.13363 4.90338,-0.68439 4.90338,-0.68439 l -6.23972,14.38195 -4.40995,-1.46998 z"
                        id="path1816-1"
                        inkscape:connector-curvature="0"
                        sodipodi:nodetypes="cccccc" />
                <path
                        inkscape:export-ydpi="90"
                        inkscape:export-xdpi="90"
                        sodipodi:nodetypes="ccccssccccsssccc"
                        style="fill:#ffceb3;fill-opacity:1;stroke:none;stroke-width:0.264583px;stroke-linecap:butt;stroke-linejoin:miter;stroke-opacity:1"
                        d="m 247.34069,99.515452 c 0,0 -7.76031,3.112738 -8.29485,3.246368 -0.53454,0.13364 -5.3616,9.49479 -6.43068,11.0984 -1.06908,1.60362 -4.78121,5.39125 -4.91485,6.86124 -0.13363,1.46998 -0.8018,3.8754 -0.53453,5.47902 0.26727,1.60362 0.66817,3.47451 0.66817,4.14268 0,0.66817 -1.06908,3.4745 -1.60362,4.81085 -0.53454,1.33635 -2.00452,1.87089 -2.40542,1.33635 -0.40091,-0.53454 0.26727,0.53454 -1.33635,0.93544 -1.60362,0.40091 -2.93996,-0.80181 -3.74177,-2.40542 -0.80181,-1.60362 -0.93545,-6.1472 -0.93545,-6.94901 0,-0.80181 3.87541,-4.14268 3.87541,-4.67722 0,-0.53454 5.7463,-18.04069 6.41447,-19.51068 0.66817,-1.46998 2.40542,-5.879928 3.60814,-6.815368 1.20271,-0.93544 9.75534,-6.01356 9.75534,-6.01356 z"
                        id="path1841-8"
                        inkscape:connector-curvature="0" />
                <path
                        inkscape:export-ydpi="90"
                        inkscape:export-xdpi="90"
                        style="fill:#ffceb3;fill-opacity:1;stroke:none;stroke-width:0.264583px;stroke-linecap:butt;stroke-linejoin:miter;stroke-opacity:1"
                        d="m 310.15297,81.566472 c 0,0 13.74145,-1.196 14.6769,-1.86417 0.93544,-0.66818 -9.00217,-3.31794 -9.00217,-3.31794 l -12.64158,-0.5144 z"
                        id="path1843-2"
                        inkscape:connector-curvature="0"
                        sodipodi:nodetypes="ccccc" />
                <path
                        inkscape:export-ydpi="90"
                        inkscape:export-xdpi="90"
                        style="fill:#00ab6f;fill-opacity:1;stroke:none;stroke-width:0.264583px;stroke-linecap:butt;stroke-linejoin:miter;stroke-opacity:1"
                        d="m 246.40918,166.29091 c 0,0 -8.68626,6.01356 -9.35443,7.61718 -0.66817,1.60362 -1.46998,4.27632 0.80181,5.61266 2.27179,1.33635 6.68173,2.00452 8.68626,-0.13363 2.00452,-2.13816 0.66817,-2.93997 3.0736,-4.40995 2.40542,-1.46998 4.81085,-1.33635 5.47902,-2.00452 0.66817,-0.66818 2.13816,-2.27179 1.87089,-3.4745 -0.26727,-1.20272 -5.61266,-3.60814 -7.08264,-4.00905 -1.46998,-0.4009 -3.47451,0.80181 -3.47451,0.80181 z"
                        id="path1849-8"
                        inkscape:connector-curvature="0" />
                <path
                        transform="translate(182.2645,9.2065079)"
                        inkscape:export-ydpi="90"
                        inkscape:export-xdpi="90"
                        style="fill:#ffffff;fill-opacity:1;stroke:none;stroke-width:0.264583px;stroke-linecap:butt;stroke-linejoin:miter;stroke-opacity:1"
                        d="m 56.788057,161.69677 c 0,0 -3.021025,5.17401 -1.368771,6.77901 1.652254,1.60501 3.899728,3.12895 6.572423,1.3917 2.672696,-1.73725 3.039821,-3.93364 4.100754,-4.59755 1.060934,-0.66391 5.560087,-2.17197 6.228261,-2.84014 0.668176,-0.66817 1.846569,-3.74177 1.846569,-3.74177 l 4.543581,1.20271 -5.879928,11.22532 -14.432555,6.28083 -8.15172,-7.61718 2.00452,-9.75533 z"
                        id="path1851-6"
                        inkscape:connector-curvature="0"
                        clip-path="url(#clipPath1868-5-7)"
                        sodipodi:nodetypes="zzzzccccccccz" />
                <path
                        inkscape:export-ydpi="90"
                        inkscape:export-xdpi="90"
                        style="fill:#00ab6f;fill-opacity:1;stroke:none;stroke-width:0.264583px;stroke-linecap:butt;stroke-linejoin:miter;stroke-opacity:1"
                        d="m 291.49962,177.97809 c 0,0 2.83482,5.00818 3.1183,6.52008 0.28348,1.51191 1.88988,7.65402 2.07887,8.12649 0.18899,0.47247 2.55134,6.23661 6.23661,4.06325 3.68527,-2.17337 3.68527,-7.55953 3.49628,-8.032 -0.18899,-0.47247 -3.59078,-8.03199 -3.87426,-8.97693 -0.28348,-0.94494 -2.83482,-5.57515 -2.83482,-5.57515 z"
                        id="path1872-6"
                        inkscape:connector-curvature="0" />
                <path
                        inkscape:export-ydpi="90"
                        inkscape:export-xdpi="90"
                        sodipodi:nodetypes="ccccsssssssscscccccccc"
                        style="fill:#061357;fill-opacity:1;stroke:none;stroke-width:0.264583px;stroke-linecap:butt;stroke-linejoin:miter;stroke-opacity:1"
                        d="m 259.50539,125.93321 c 0,0 -8.95353,10.95805 -10.02261,12.42804 -1.06907,1.46998 -4.54358,7.48354 -4.40994,9.6217 0.13363,2.13815 1.06908,16.1698 2.00451,18.30796 0.93545,2.13816 6.41447,4.54358 7.88446,3.87541 1.46998,-0.66817 2.80633,-1.46998 2.53906,-4.14268 -0.26727,-2.67269 0.26727,-7.34991 0.26727,-8.15172 0,-0.80181 -1.20272,-4.54358 -1.20272,-5.87993 0,-1.33635 9.62171,-9.08716 14.03166,-10.95805 4.40994,-1.87089 8.01808,-2.93997 8.81989,-2.93997 0.80181,0 5.47903,3.47451 6.94901,9.2208 1.46998,5.7463 3.74177,13.49711 4.00904,15.368 0.26727,1.87089 0.53454,5.61266 0.66818,7.34991 0.13363,1.73725 -0.53454,5.7463 0.26727,7.21628 0.80181,1.46998 2.67269,2.53906 4.14267,2.00452 1.46999,-0.53454 6.01357,-2.80633 6.28084,-3.60814 0.26727,-0.8018 -0.80181,-6.01356 -0.80181,-6.01356 0,0 2.13815,-3.4745 2.27179,-5.34539 0.13363,-1.87089 -0.53454,-15.50163 -0.53454,-16.70435 -0.52411,-6.65891 -2.00504,-12.52497 -4.40995,-18.70886 l -26.32605,-4.54358 z"
                        id="path1847-1"
                        inkscape:connector-curvature="0" />
                <path
                        transform="translate(182.2645,9.2065079)"
                        inkscape:export-ydpi="90"
                        inkscape:export-xdpi="90"
                        sodipodi:nodetypes="cccsccc"
                        style="fill:#091e89;fill-opacity:0.462783;stroke:none;stroke-width:0.264583px;stroke-linecap:butt;stroke-linejoin:miter;stroke-opacity:1"
                        d="m 60.098214,134.09226 c 1.511904,2.64583 1.889879,5.29167 5.858629,6.61458 3.96875,1.32292 9.124817,1.88038 10.825709,0.55747 1.700893,-1.32292 0.126613,-11.60808 3.070004,-14.82885 3.117488,-3.41127 14.493588,-13.18326 14.493588,-13.18326 l -33.86602,-1.26829 z"
                        id="path1943-5"
                        inkscape:connector-curvature="0"
                        clip-path="url(#clipPath1966-6-9)" />
                <path
                        transform="translate(182.2645,9.2065079)"
                        inkscape:export-ydpi="90"
                        inkscape:export-xdpi="90"
                        sodipodi:nodetypes="zcscczzz"
                        style="fill:#091e89;fill-opacity:0.462783;stroke:none;stroke-width:0.264583px;stroke-linecap:butt;stroke-linejoin:miter;stroke-opacity:1"
                        d="m 102.99851,142.40774 c 1.17503,3.46852 2.83482,6.42559 6.23661,6.99256 3.40178,0.56696 7.55952,3.77976 9.4494,-1.32292 1.88988,-5.10268 1.79539,-12.00074 1.79539,-12.00074 -1.62364,-9.93021 -5.22522,-21.7565 -8.97694,-19.1823 0,0 -7.18154,-0.75595 -6.89806,-0.18899 0.28348,0.56696 3.00019,9.6384 2.55134,15.9695 -0.44885,6.3311 -5.33277,6.26437 -4.15774,9.73289 z"
                        id="path1945-7"
                        inkscape:connector-curvature="0"
                        clip-path="url(#clipPath1962-3-3)" />
                <path
                        inkscape:export-ydpi="90"
                        inkscape:export-xdpi="90"
                        style="fill:#00ab6f;fill-opacity:1;stroke:none;stroke-width:0.264583px;stroke-linecap:butt;stroke-linejoin:miter;stroke-opacity:1"
                        d="m 255.22908,80.564212 c 0,0 -5.53604,4.07584 -7.50451,5.49998 -1.96848,1.42415 -7.31182,4.67455 -7.52941,5.52488 -0.20045,0.86863 -1.53679,2.73952 2.47225,6.01357 4.00904,3.274048 6.5481,4.610398 6.5481,4.610398 0,0 5.81311,-3.474508 6.68174,-3.474508 0.86863,0 6.74856,5.278578 7.88445,6.882188 1.1359,1.60362 2.6727,5.14495 2.6727,7.21629 0,2.07133 -3.0736,7.75081 -5.01131,10.08942 -1.9377,2.33861 -2.80632,3.34087 -3.00678,3.94223 -0.20045,0.60135 3.34087,-2.53906 8.61944,-0.53454 5.27858,2.00452 10.28988,3.20723 12.89576,3.4745 2.60588,0.26727 9.55489,0.20045 11.96031,0.0668 2.40543,-0.13364 6.1472,1.26953 6.88219,0.53454 0.73499,-0.73499 1.93296,-2.98583 1.64948,-5.61545 -2.19891,-7.41047 -3.8784,-15.79341 -3.31991,-23.11603 0.26727,-3.006778 1.9377,-12.059548 3.4745,-13.195448 8.49768,-2.08876 9.35817,-0.50627 10.19341,-4.50641 0.83525,-4.00013 1.4307,-6.59249 1.51584,-6.84583 0.66146,-1.96816 -10.57335,-0.3752 -13.4465,-1.57791 -2.87315,-1.20271 -9.6217,-3.00678 -11.1585,-3.54132 -1.5368,-0.53454 -4.00905,-0.46772 -5.41221,0.26727 -1.40317,0.73499 -2.20498,2.40543 -2.53906,3.80859 -0.33409,1.40317 -3.87541,11.02487 -3.87541,11.02487 l -4.40995,-1.46998 c 0,0 -9.88897,-2.20498 -11.62622,-3.20724 -1.73726,-1.00226 -4.6104,-1.87088 -4.6104,-1.87088 z"
                        id="path1818-9"
                        inkscape:connector-curvature="0"
                        sodipodi:nodetypes="czcscsssscsscsccczsscssccccc" />
                <path
                        inkscape:export-ydpi="90"
                        inkscape:export-xdpi="90"
                        style="opacity:1;fill:#ffdecc;fill-opacity:1;stroke:none;stroke-width:0.264583px;stroke-linecap:butt;stroke-linejoin:miter;stroke-opacity:1"
                        d="m 255.22908,80.564212 c 0,0.93544 1.00226,2.07134 1.60361,2.53906 0.60136,0.46772 2.20498,2.00452 2.60588,2.40542 0.40091,0.40091 1.33635,1.20272 1.46998,2.07134 0.13364,0.86863 0.26728,1.5368 0.93545,1.67044 0.66817,0.13363 1.33635,-0.73499 1.33635,-0.73499 0,0 2.27179,0.60135 3.40768,0.73499 1.1359,0.13363 2.73951,0.60135 3.40769,0.0668 0.66817,-0.53454 2.27179,-3.74177 2.40542,-4.27631 0.13364,-0.53454 0.93545,-2.33861 1.00226,-3.27406 0.0668,-0.93544 0.0668,-5.21175 0.0668,-5.54584 0,-0.33408 0.46772,-1.46998 0.60136,-2.07134 0.13364,-0.60135 0.60136,-2.40542 0.20045,-3.00678 -0.4009,-0.60135 -1.40316,-1.1359 -1.67043,-1.1359 -0.26727,0 -1.51387,0.76464 -1.58069,1.23236 -0.0668,0.46772 -0.42383,-1.83371 -1.09201,-2.5687 -0.66817,-0.73499 -3.0736,-2.47224 -4.34313,-2.47224 -1.26953,0 -4.27631,0.26726 -5.61266,1.20271 -1.33634,0.93544 -4.67721,5.81311 -4.94448,7.48355 -0.26727,1.67043 0.20045,5.67947 0.20045,5.67947 z"
                        id="path1812-2"
                        inkscape:connector-curvature="0"
                        sodipodi:nodetypes="ccccccccccsscsccscscc" />
                <path
                        inkscape:export-ydpi="90"
                        inkscape:export-xdpi="90"
                        style="fill:#8b4e2d;fill-opacity:1;stroke:none;stroke-width:0.264583px;stroke-linecap:butt;stroke-linejoin:miter;stroke-opacity:1"
                        d="m 271.39888,75.953812 c 0,-0.93545 -0.4009,-2.00452 -0.20045,-2.13816 1.19602,-0.66703 1.54423,-3.89949 1.33635,-5.14494 -0.13364,-0.53454 -0.80181,-2.80633 -2.60588,-3.80859 -1.80407,-1.00226 -6.88219,-2.80633 -11.1585,-1.13589 -4.27632,1.67043 -3.4745,6.41447 -6.21402,6.68174 -2.701,0.58563 -5.95167,-0.6651 -6.61492,-0.13364 -0.66775,0.53507 -0.22369,5.16661 2.67269,7.55037 2.89639,2.38375 5.52595,3.07477 7.95127,2.20497 2.42533,-0.86981 3.94223,-2.20498 5.47903,-3.0736 1.5368,-0.86863 2.47224,-1.40317 4.00904,-1.33635 1.5368,0.0668 3.74177,3.00678 3.74177,3.00678 1.09445,-0.60071 1.52612,-1.83199 1.60362,-2.67269 z"
                        id="path1814-0"
                        inkscape:connector-curvature="0"
                        sodipodi:nodetypes="cccszcszzcccc" />
                <path
                        transform="translate(182.2645,9.2065079)"
                        inkscape:export-ydpi="90"
                        inkscape:export-xdpi="90"
                        style="fill:#ffceb3;fill-opacity:1;stroke:none;stroke-width:0.264583px;stroke-linecap:butt;stroke-linejoin:miter;stroke-opacity:1"
                        d="m 89.468474,62.738257 c 0.03532,1.876493 0.753258,3.1843 1.870885,3.207236 0.534541,0 1.937705,-2.539061 1.937705,-2.873148 -1.491512,-3.148307 -2.585431,-2.475442 -3.082629,-2.288928 -0.497198,0.186514 -0.761284,0.07835 -0.725961,1.95484 z"
                        id="path1820-1"
                        inkscape:connector-curvature="0"
                        clip-path="url(#clipPath2088-8-0)"
                        sodipodi:nodetypes="zcczz" />
                <path
                        inkscape:export-ydpi="90"
                        inkscape:export-xdpi="90"
                        sodipodi:nodetypes="ccsssczsccccc"
                        style="fill:#ffdecc;fill-opacity:1;stroke:none;stroke-width:0.264583px;stroke-linecap:butt;stroke-linejoin:miter;stroke-opacity:1"
                        d="m 323.78371,80.096482 c 0,0 5.07812,-1.87088 5.7463,-3.07359 0.66817,-1.20272 1.20271,-3.47451 0.13363,-4.14268 -1.06908,-0.66818 -6.28083,-3.00678 -9.75533,-3.54132 -3.47451,-0.53454 -14.83347,2.27179 -16.30345,2.40542 -1.46998,0.13364 -6.68173,-3.14041 -6.68173,-3.14041 0,0 -4.54359,-1.46999 -5.21176,-0.66818 -0.66817,0.80181 -1.46998,2.00452 -1.46998,4.27631 0,2.2718 -0.40091,3.74178 0.93544,4.54358 1.33635,0.80181 5.7463,2.40543 8.15172,1.20272 2.40543,-1.20272 7.08264,-1.20272 8.95353,-0.93544 1.87089,0.26726 7.75082,0.66817 7.75082,0.66817 z"
                        id="path1845-9"
                        inkscape:connector-curvature="0" />
                <path
                        transform="translate(182.2645,9.2065079)"
                        sodipodi:nodetypes="cssscccccc"
                        inkscape:export-ydpi="90"
                        inkscape:export-xdpi="90"
                        style="fill:#ffffff;fill-opacity:1;stroke:none;stroke-width:0.264583px;stroke-linecap:butt;stroke-linejoin:miter;stroke-opacity:1"
                        d="m 112.82589,178.03199 c 0,0 3.77976,9.73288 6.4256,8.69345 1.00785,-0.39594 1.86488,-1.35403 2.53975,-2.4669 1.09681,-1.80867 1.71248,-4.02614 1.71248,-4.90363 0,-1.41741 -1.79539,-6.99256 -1.79539,-6.99256 l 5.95313,8.88244 -5.19718,10.77232 -4.15773,-0.37798 -6.4256,-8.40997 z"
                        id="path1874-1"
                        inkscape:connector-curvature="0"
                        clip-path="url(#clipPath1897-1-8)" />
                <path
                        sodipodi:arc-type="arc"
                        inkscape:export-ydpi="90"
                        inkscape:export-xdpi="90"
                        style="opacity:1;vector-effect:none;fill:#0b229d;fill-opacity:1;stroke:none;stroke-width:1.465;stroke-linecap:round;stroke-linejoin:round;stroke-miterlimit:4;stroke-dasharray:5.85999, 5.85999;stroke-dashoffset:0;stroke-opacity:1;paint-order:markers stroke fill"
                        id="path1905-4"
                        sodipodi:type="arc"
                        sodipodi:cx="265.78622"
                        sodipodi:cy="190.14473"
                        sodipodi:rx="2.9399648"
                        sodipodi:ry="2.8731472"
                        sodipodi:start="0.32175145"
                        sodipodi:end="0.14707837"
                        sodipodi:open="true"
                        d="m 268.57532,191.0533 a 2.9399648,2.8731472 0 0 1 -3.59615,1.8542 2.9399648,2.8731472 0 0 1 -2.0525,-3.43013 2.9399648,2.8731472 0 0 1 3.41695,-2.15368 2.9399648,2.8731472 0 0 1 2.35083,3.2421" />
                <path
                        sodipodi:arc-type="arc"
                        inkscape:export-ydpi="90"
                        inkscape:export-xdpi="90"
                        style="opacity:1;vector-effect:none;fill:#0b229d;fill-opacity:1;stroke:none;stroke-width:1.465;stroke-linecap:round;stroke-linejoin:round;stroke-miterlimit:4;stroke-dasharray:5.85999, 5.85999;stroke-dashoffset:0;stroke-opacity:1;paint-order:markers stroke fill"
                        id="path1905-8-4"
                        sodipodi:type="arc"
                        sodipodi:cx="289.73065"
                        sodipodi:cy="223.00734"
                        sodipodi:rx="2.9399648"
                        sodipodi:ry="2.8731472"
                        sodipodi:start="0.32175145"
                        sodipodi:end="0.14707837"
                        sodipodi:open="true"
                        d="m 292.51975,223.91591 a 2.9399648,2.8731472 0 0 1 -3.59616,1.8542 2.9399648,2.8731472 0 0 1 -2.0525,-3.43013 2.9399648,2.8731472 0 0 1 3.41696,-2.15368 2.9399648,2.8731472 0 0 1 2.35083,3.2421" />
                <path
                        inkscape:export-ydpi="90"
                        inkscape:export-xdpi="90"
                        style="fill:#061357;fill-opacity:1;stroke:none;stroke-width:0.264583px;stroke-linecap:butt;stroke-linejoin:miter;stroke-opacity:1"
                        d="m 243.13988,189.94426 c -0.40447,-1.2134 -1.80519,-4.07097 1.97209,-5.77871 3.77729,-1.70775 8.64712,-2.10574 13.99251,1.76967 5.3454,3.87541 30.86964,39.9568 31.80508,40.7586 0.93544,0.80181 3.22066,4.97413 2.55248,9.65135 -0.66817,4.67722 -6.16062,5.04848 -8.56604,4.24667 -2.40543,-0.80181 -8.55263,-7.75082 -12.69531,-13.22984 -4.14268,-5.47903 -22.39529,-28.79355 -23.73163,-30.26353 -1.33635,-1.46998 -4.92471,-5.94081 -5.32918,-7.15421 z"
                        id="path1903-5"
                        inkscape:connector-curvature="0"
                        sodipodi:nodetypes="zzscccccz" />
                <path
                        transform="translate(182.2645,9.2065079)"
                        inkscape:export-ydpi="90"
                        inkscape:export-xdpi="90"
                        style="fill:#007c50;fill-opacity:1;stroke:none;stroke-width:0.264583px;stroke-linecap:butt;stroke-linejoin:miter;stroke-opacity:1"
                        d="m 66.523808,93.270831 c 0,0 3.779764,-6.992559 6.047619,-7.370535 2.267857,-0.377976 12.473214,6.236607 12.85119,11.528274 0.377976,5.29167 -4.346726,12.6622 -6.425594,14.93006 -2.078868,2.26786 -12.473215,-19.087799 -12.473215,-19.087799 z"
                        id="path1922-7"
                        inkscape:connector-curvature="0"
                        clip-path="url(#clipPath1939-0-4)" />
            </g>
        </g>
    </g>
</svg>